<svg width="242" height="362" viewBox="0 0 242 362" fill="none" xmlns="http://www.w3.org/2000/svg">
<path d="M201 1.00012H41C18.9086 1.00012 1 18.9087 1 41.0001V321C1 343.092 18.9086 361 41 361H201C223.091 361 241 343.092 241 321V41.0001C241 18.9087 223.091 1.00012 201 1.00012Z" fill="white" stroke="black" stroke-width="2"/>
<path d="M201 21.0001H41C29.9543 21.0001 21 29.9544 21 41.0001V321C21 332.046 29.9543 341 41 341H201C212.046 341 221 332.046 221 321V41.0001C221 29.9544 212.046 21.0001 201 21.0001Z" fill="#5555FF"/>
<path fill-rule="evenodd" clip-rule="evenodd" d="M181 81.0001C92.6344 81.0001 21 152.635 21 241C21 263.092 38.9086 281 61 281C149.366 281 221 209.366 221 121C221 98.9087 203.091 81.0001 181 81.0001Z" fill="white"/>
<path d="M121 121C104.431 121 91 134.432 91 151H111C111 145.477 115.477 141 121 141C126.523 141 131 145.477 131 151C131 156.523 126.523 161 121 161H109V181H121C132.08 181 141 189.92 141 201C141 212.08 132.08 221 121 221C109.92 221 101 212.08 101 201H81C81 223.16 98.84 241 121 241C143.16 241 161 223.16 161 201C161 187.824 154.647 176.28 144.875 169C148.683 163.971 151 157.795 151 151C151 134.432 137.569 121 121 121Z" fill="#5555FF"/>
<path d="M51 31.0001C42.7157 31.0001 36 37.7158 36 46.0001H46C46 43.2387 48.2386 41.0001 51 41.0001C53.7614 41.0001 56 43.2387 56 46.0001C56 48.7615 53.7614 51.0001 51 51.0001H45V61H51C56.54 61 61 65.4601 61 71.0001C61 76.5401 56.54 81.0001 51 81.0001C45.46 81.0001 41 76.5401 41 71.0001H31C31 82.0801 39.92 91.0001 51 91.0001C62.08 91.0001 71 82.0801 71 71.0001C71 64.4122 67.8234 58.6399 62.9375 55.0001C64.8414 52.4853 66 49.3975 66 46.0001C66 37.7158 59.2843 31.0001 51 31.0001Z" fill="white"/>
<path d="M191 331C199.284 331 206 324.284 206 316H196C196 318.762 193.761 321 191 321C188.239 321 186 318.762 186 316C186 313.239 188.239 311 191 311H197V301H191C185.46 301 181 296.54 181 291C181 285.46 185.46 281 191 281C196.54 281 201 285.46 201 291H211C211 279.92 202.08 271 191 271C179.92 271 171 279.92 171 291C171 297.588 174.177 303.36 179.062 307C177.159 309.515 176 312.603 176 316C176 324.284 182.716 331 191 331Z" fill="white"/>
</svg>
