<svg width="242" height="362" viewBox="0 0 242 362" fill="none" xmlns="http://www.w3.org/2000/svg">
<path d="M201 1H41C18.9086 1 1 18.9086 1 41V321C1 343.091 18.9086 361 41 361H201C223.091 361 241 343.091 241 321V41C241 18.9086 223.091 1 201 1Z" fill="white" stroke="black" stroke-width="2"/>
<path d="M201 21H41C29.9543 21 21 29.9543 21 41V321C21 332.046 29.9543 341 41 341H201C212.046 341 221 332.046 221 321V41C221 29.9543 212.046 21 201 21Z" fill="#5555FF"/>
<path fill-rule="evenodd" clip-rule="evenodd" d="M181 80.9999C92.6344 80.9999 21 152.634 21 241C21 263.091 38.9086 281 61 281C149.366 281 221 209.365 221 121C221 98.9085 203.091 80.9999 181 80.9999Z" fill="white"/>
<path fill-rule="evenodd" clip-rule="evenodd" d="M87 121V161H107V141H147L107 241H127L167 141V121H107H87Z" fill="#5555FF"/>
<path fill-rule="evenodd" clip-rule="evenodd" d="M31 31V51H41V41H61L41 91H51L71 41V31H41H31Z" fill="white"/>
<path fill-rule="evenodd" clip-rule="evenodd" d="M211 331V311H201V321H181L201 271H191L171 321V331H201H211Z" fill="white"/>
</svg>
