<svg width="242" height="362" viewBox="0 0 242 362" fill="none" xmlns="http://www.w3.org/2000/svg">
<path d="M201 1H41C18.9086 1 1 18.9086 1 41V321C1 343.091 18.9086 361 41 361H201C223.091 361 241 343.091 241 321V41C241 18.9086 223.091 1 201 1Z" fill="white" stroke="black" stroke-width="2"/>
<path d="M201 21H41C29.9543 21 21 29.9543 21 41V321C21 332.046 29.9543 341 41 341H201C212.046 341 221 332.046 221 321V41C221 29.9543 212.046 21 201 21Z" fill="#55AA55"/>
<path fill-rule="evenodd" clip-rule="evenodd" d="M181 81C92.6344 81 21 152.634 21 241C21 263.091 38.9086 281 61 281C149.366 281 221 209.366 221 121C221 98.9086 203.091 81 181 81Z" fill="white"/>
<path d="M116.2 121L77 201V221H125V241H145V221H157V201H145V161H125V201H97.8L137 121H116.2Z" fill="#55AA55"/>
<path d="M50.2001 31L30.6001 71V81H54.6001V91H64.6001V81H70.6001V71H64.6001V51H54.6001V71H41.0001L60.6001 31H50.2001Z" fill="white"/>
<path d="M191 331L210.6 291V281H186.6V271H176.6V281H170.6V291H176.6V311H186.6V291H200.2L180.6 331H191Z" fill="white"/>
</svg>
