<svg width="242" height="362" viewBox="0 0 242 362" fill="none" xmlns="http://www.w3.org/2000/svg">
<path d="M201 1.00012H41C18.9086 1.00012 1 18.9087 1 41.0001V321C1 343.092 18.9086 361 41 361H201C223.091 361 241 343.092 241 321V41.0001C241 18.9087 223.091 1.00012 201 1.00012Z" fill="white" stroke="black" stroke-width="2"/>
<path d="M201 21.0001H41C29.9543 21.0001 21 29.9544 21 41.0001V321C21 332.046 29.9543 341 41 341H201C212.046 341 221 332.046 221 321V41.0001C221 29.9544 212.046 21.0001 201 21.0001Z" fill="#FFAA00"/>
<path fill-rule="evenodd" clip-rule="evenodd" d="M181 81.0001C92.6344 81.0001 21 152.635 21 241C21 263.092 38.9086 281 61 281C149.366 281 221 209.366 221 121C221 98.9087 203.091 81.0001 181 81.0001Z" fill="white"/>
<path d="M85 121V161V181H125C136.08 181 145 189.92 145 201C145 212.08 136.08 221 125 221C113.92 221 105 212.08 105 201H85C85 223.16 102.84 241 125 241C147.16 241 165 223.16 165 201C165 178.84 147.16 161 125 161H105V141H125H161V121H125H105H85Z" fill="#FFAA00"/>
<path d="M31 31.0001V51.0001V61.0001H51C56.54 61.0001 61 65.4601 61 71.0001C61 76.5401 56.54 81.0001 51 81.0001C45.46 81.0001 41 76.5401 41 71.0001H31C31 82.0801 39.92 91.0001 51 91.0001C62.08 91.0001 71 82.0801 71 71.0001C71 59.9201 62.08 51.0001 51 51.0001H41V41.0001H51H69V31.0001H51H41H31Z" fill="white"/>
<path d="M211 331V311V301H191C185.46 301 181 296.54 181 291C181 285.46 185.46 281 191 281C196.54 281 201 285.46 201 291H211C211 279.92 202.08 271 191 271C179.92 271 171 279.92 171 291C171 302.08 179.92 311 191 311H201V321H191H173V331H191H201H211Z" fill="white"/>
</svg>
