<svg width="242" height="362" viewBox="0 0 242 362" fill="none" xmlns="http://www.w3.org/2000/svg">
<path d="M201 1.00012H41C18.9086 1.00012 1 18.9087 1 41.0001V321C1 343.092 18.9086 361 41 361H201C223.091 361 241 343.092 241 321V41.0001C241 18.9087 223.091 1.00012 201 1.00012Z" fill="white" stroke="black" stroke-width="2"/>
<path d="M201 21.0001H41C29.9543 21.0001 21 29.9544 21 41.0001V321C21 332.046 29.9543 341 41 341H201C212.046 341 221 332.046 221 321V41.0001C221 29.9544 212.046 21.0001 201 21.0001Z" fill="#FFAA00"/>
<path fill-rule="evenodd" clip-rule="evenodd" d="M181 81C92.6344 81 21 152.634 21 241C21 263.091 38.9086 281 61 281C149.366 281 221 209.366 221 121C221 98.9086 203.091 81 181 81Z" fill="white"/>
<path fill-rule="evenodd" clip-rule="evenodd" d="M87 121V161H107V141H147L107 241H127L167 141V121H107H87Z" fill="#FFAA00"/>
<path fill-rule="evenodd" clip-rule="evenodd" d="M31 31.0001V51.0001H41V41.0001H61L41 91.0001H51L71 41.0001V31.0001H41H31Z" fill="white"/>
<path fill-rule="evenodd" clip-rule="evenodd" d="M211 331V311H201V321H181L201 271H191L171 321V331H201H211Z" fill="white"/>
</svg>
