<svg width="242" height="362" viewBox="0 0 242 362" fill="none" xmlns="http://www.w3.org/2000/svg">
<path d="M201 1.00024H41C18.9086 1.00024 1 18.9089 1 41.0002V321C1 343.092 18.9086 361 41 361H201C223.091 361 241 343.092 241 321V41.0002C241 18.9089 223.091 1.00024 201 1.00024Z" fill="white" stroke="black" stroke-width="2"/>
<path d="M201 21.0002H41C29.9543 21.0002 21 29.9545 21 41.0002V321C21 332.046 29.9543 341 41 341H201C212.046 341 221 332.046 221 321V41.0002C221 29.9545 212.046 21.0002 201 21.0002Z" fill="black"/>
<path fill-rule="evenodd" clip-rule="evenodd" d="M181 81.0002C92.6344 81.0002 21 152.635 21 241C21 263.092 38.9086 281 61 281C149.366 281 221 209.366 221 121C221 98.9088 203.091 81.0002 181 81.0002Z" fill="white"/>
<path d="M80.6001 31.0002L61 71.0002V81.0002H85V91.0002H95V81.0002H101V71.0002H95V51.0002H85V71.0002H71.3999L91 31.0002H80.6001Z" fill="white"/>
<path fill-rule="evenodd" clip-rule="evenodd" d="M35 51.0002V61.0002H25V71H35V81.0002H45V71H55V61.0002H45V51.0002H35Z" fill="white"/>
<path d="M161.4 331L181 291V281H157V271H147V281H141V291H147V311H157V291H170.6L151 331H161.4Z" fill="white"/>
<path fill-rule="evenodd" clip-rule="evenodd" d="M207 311V301H217V291H207V281H197V291H187V301H197V311H207Z" fill="white"/>
<path d="M123.857 131H83.8572C78.3343 131 72.7021 135.043 71.2772 140.03L50.7228 211.97C49.2979 216.957 52.62 221 58.1428 221H98.1428C103.666 221 109.298 216.957 110.723 211.97L131.277 140.03C132.702 135.043 129.38 131 123.857 131Z" fill="white" stroke="black" stroke-width="2.03962"/>
<path d="M111 141H91C85.4772 141 79.8449 145.043 78.4201 150.03L63.5799 201.97C62.155 206.957 65.4771 211 70.9999 211H90.9999C96.5228 211 102.155 206.957 103.58 201.97L118.42 150.03C119.845 145.043 116.523 141 111 141Z" fill="#FF5555"/>
<path d="M163.857 101H123.857C118.334 101 112.702 105.043 111.277 110.03L90.7228 181.97C89.2979 186.957 92.62 191 98.1428 191H138.143C143.666 191 149.298 186.957 150.723 181.97L171.277 110.03C172.702 105.043 169.38 101 163.857 101Z" fill="white" stroke="black" stroke-width="2.03962"/>
<path d="M151 111H131C125.477 111 119.845 115.043 118.42 120.03L103.58 171.97C102.155 176.957 105.477 181 111 181H131C136.523 181 142.155 176.957 143.58 171.97L158.42 120.03C159.845 115.043 156.523 111 151 111Z" fill="#5555FF"/>
<path d="M153.857 161H113.857C108.334 161 102.702 165.043 101.277 170.03L80.7228 241.97C79.2979 246.957 82.62 251 88.1428 251H128.143C133.666 251 139.298 246.957 140.723 241.97L161.277 170.03C162.702 165.043 159.38 161 153.857 161Z" fill="white" stroke="black" stroke-width="2.03962"/>
<path d="M141 171H121C115.477 171 109.845 175.043 108.42 180.03L93.5799 231.97C92.155 236.957 95.4771 241 101 241H121C126.523 241 132.155 236.957 133.58 231.97L148.42 180.03C149.845 175.043 146.523 171 141 171Z" fill="#FFAA00"/>
<path d="M193.857 131H153.857C148.334 131 142.702 135.043 141.277 140.03L120.723 211.97C119.298 216.958 122.62 221 128.143 221H168.143C173.666 221 179.298 216.958 180.723 211.97L201.277 140.03C202.702 135.043 199.38 131 193.857 131Z" fill="white" stroke="black" stroke-width="2.03962"/>
<path d="M181 141H161C155.477 141 149.845 145.043 148.42 150.03L133.58 201.97C132.155 206.957 135.477 211 141 211H161C166.523 211 172.155 206.957 173.58 201.97L188.42 150.03C189.845 145.043 186.523 141 181 141Z" fill="#55AA55"/>
</svg>
