<svg width="242" height="362" viewBox="0 0 242 362" fill="none" xmlns="http://www.w3.org/2000/svg">
<path d="M201 1.00012H41C18.9086 1.00012 1 18.9087 1 41.0001V321C1 343.092 18.9086 361 41 361H201C223.091 361 241 343.092 241 321V41.0001C241 18.9087 223.091 1.00012 201 1.00012Z" fill="white" stroke="black" stroke-width="2"/>
<path d="M201 21.0001H41C29.9543 21.0001 21 29.9544 21 41.0001V321C21 332.046 29.9543 341 41 341H201C212.046 341 221 332.046 221 321V41.0001C221 29.9544 212.046 21.0001 201 21.0001Z" fill="#FF5555"/>
<path fill-rule="evenodd" clip-rule="evenodd" d="M181 81.0001C92.6344 81.0001 21 152.635 21 241C21 263.092 38.9086 281 61 281C149.366 281 221 209.366 221 121C221 98.9087 203.091 81.0001 181 81.0001Z" fill="white"/>
<path d="M117 121C94.84 121 77 138.84 77 161V165H97V161C97 149.92 105.92 141 117 141C128.08 141 137 149.92 137 161C137 165.51 133.258 174.361 129.35 177.436C108.131 194.136 108.355 191.378 77 213V241H117H157V221V213H137V221H117H101C125.76 203.565 127.571 203.988 146.972 186.625C153.189 181.062 157 170.021 157 161C157 138.84 139.16 121 117 121Z" fill="#FF5555"/>
<path d="M51 31.0001C39.92 31.0001 31 39.9201 31 51.0001V53.0001H41V51.0001C41 45.4601 45.46 41.0001 51 41.0001C56.54 41.0001 61 45.4601 61 51.0001C61 53.2551 59.129 57.6804 57.1751 59.2181C46.5655 67.568 46.6775 66.189 31 77.0001V91.0001H51H71V81.0001V77.0001H61V81.0001H51H43C55.3801 72.2826 56.2854 72.4939 65.9861 63.8126C69.0943 61.0311 71 55.5105 71 51.0001C71 39.9201 62.08 31.0001 51 31.0001Z" fill="white"/>
<path d="M191 331C202.08 331 211 322.08 211 311V309H201V311C201 316.54 196.54 321 191 321C185.46 321 181 316.54 181 311C181 308.745 182.871 304.32 184.825 302.782C195.434 294.432 195.323 295.811 211 285V271H191H171V281V285H181V281H191H199C186.62 289.718 185.715 289.506 176.014 298.188C172.906 300.969 171 306.49 171 311C171 322.08 179.92 331 191 331Z" fill="white"/>
</svg>
