<svg width="242" height="362" viewBox="0 0 242 362" fill="none" xmlns="http://www.w3.org/2000/svg">
<path d="M201 1.00012H41C18.9086 1.00012 1 18.9087 1 41.0001V321C1 343.092 18.9086 361 41 361H201C223.091 361 241 343.092 241 321V41.0001C241 18.9087 223.091 1.00012 201 1.00012Z" fill="white" stroke="black" stroke-width="2"/>
<path d="M201 21.0001H41C29.9543 21.0001 21 29.9544 21 41.0001V321C21 332.046 29.9543 341 41 341H201C212.046 341 221 332.046 221 321V41.0001C221 29.9544 212.046 21.0001 201 21.0001Z" fill="#FF5555"/>
<path fill-rule="evenodd" clip-rule="evenodd" d="M181 81.0001C92.6344 81.0001 21 152.635 21 241C21 263.092 38.9086 281 61 281C149.366 281 221 209.366 221 121C221 98.9087 203.091 81.0001 181 81.0001Z" fill="white"/>
<path fill-rule="evenodd" clip-rule="evenodd" d="M121 121C98.9086 121 81 138.909 81 161V201C81 223.092 98.9086 241 121 241C143.091 241 161 223.092 161 201C161 178.909 143.091 161 121 161C113.732 161 106.874 162.987 101 166.375V161C101 149.954 109.954 141 121 141C128.817 141 135.46 145.588 138.75 152.125L156.75 143.125C150.193 129.988 136.681 121 121 121ZM121 181C132.046 181 141 189.954 141 201C141 212.046 132.046 221 121 221C109.954 221 101 212.046 101 201C101 189.954 109.954 181 121 181ZM101 245V253H141V245H101Z" fill="#FF5555"/>
<path fill-rule="evenodd" clip-rule="evenodd" d="M51 31.0001C39.9543 31.0001 31 39.9544 31 51.0001V71C31 82.0457 39.9543 91.0001 51 91.0001C62.0457 91.0001 71 82.0457 71 71C71 59.9544 62.0457 51.0001 51 51.0001C47.366 51.0001 43.9368 51.9936 41 53.6876V51.0001C41 45.4773 45.4772 41.0001 51 41.0001C54.9085 41.0001 58.2302 43.2942 59.875 46.5626L68.875 42.0626C65.5965 35.4939 58.8405 31.0001 51 31.0001ZM51 61.0001C56.5228 61.0001 61 65.4772 61 71C61 76.5228 56.5228 81.0001 51 81.0001C45.4772 81.0001 41 76.5228 41 71C41 65.4772 45.4772 61.0001 51 61.0001Z" fill="white"/>
<path fill-rule="evenodd" clip-rule="evenodd" d="M191 331C202.046 331 211 322.046 211 311V291C211 279.954 202.046 271 191 271C179.954 271 171 279.954 171 291C171 302.046 179.954 311 191 311C194.634 311 198.063 310.007 201 308.312V311C201 316.523 196.523 321 191 321C187.092 321 183.77 318.706 182.125 315.438L173.125 319.938C176.403 326.506 183.16 331 191 331ZM191 301C185.477 301 181 296.523 181 291C181 285.477 185.477 281 191 281C196.523 281 201 285.477 201 291C201 296.523 196.523 301 191 301Z" fill="white"/>
</svg>
