<svg width="242" height="362" viewBox="0 0 242 362" fill="none" xmlns="http://www.w3.org/2000/svg">
<path d="M201 1.00012H41C18.9086 1.00012 1 18.9087 1 41.0001V321C1 343.092 18.9086 361 41 361H201C223.091 361 241 343.092 241 321V41.0001C241 18.9087 223.091 1.00012 201 1.00012Z" fill="white" stroke="black" stroke-width="2"/>
<path d="M201 21.0001H41C29.9543 21.0001 21 29.9544 21 41.0001V321C21 332.046 29.9543 341 41 341H201C212.046 341 221 332.046 221 321V41.0001C221 29.9544 212.046 21.0001 201 21.0001Z" fill="#FF5555"/>
<path fill-rule="evenodd" clip-rule="evenodd" d="M181 81.0001C92.6344 81.0001 21 152.635 21 241C21 263.092 38.9086 281 61 281C149.366 281 221 209.366 221 121C221 98.9087 203.091 81.0001 181 81.0001Z" fill="white"/>
<path d="M121 121C104.431 121 91 134.431 91 151C91 157.795 93.3172 163.971 97.125 169C87.3533 176.28 81 187.824 81 201C81 223.16 98.84 241 121 241C143.16 241 161 223.16 161 201C161 187.824 154.647 176.28 144.875 169C148.683 163.971 151 157.795 151 151C151 134.431 137.569 121 121 121ZM121 141C126.523 141 131 145.477 131 151C131 156.523 126.523 161 121 161C115.477 161 111 156.523 111 151C111 145.477 115.477 141 121 141ZM119 181C119.674 180.932 120.307 181 121 181C132.08 181 141 189.92 141 201C141 212.08 132.08 221 121 221C109.92 221 101 212.08 101 201C101 190.613 108.89 182.021 119 181Z" fill="#FF5555"/>
<path d="M51 31.0001C42.7157 31.0001 36 37.7157 36 46.0001C36 49.3975 37.1586 52.4853 39.0625 55.0001C34.1767 58.6399 31 64.4121 31 71.0001C31 82.0801 39.92 91.0001 51 91.0001C62.08 91.0001 71 82.0801 71 71.0001C71 64.4121 67.8234 58.6399 62.9375 55.0001C64.8414 52.4853 66 49.3975 66 46.0001C66 37.7157 59.2843 31.0001 51 31.0001ZM51 41.0001C53.7614 41.0001 56 43.2387 56 46.0001C56 48.7615 53.7614 51.0001 51 51.0001C48.2386 51.0001 46 48.7615 46 46.0001C46 43.2387 48.2386 41.0001 51 41.0001ZM50 61C50.3368 60.964 50.6537 61 51 61C56.54 61 61 65.4601 61 71.0001C61 76.5401 56.54 81.0001 51 81.0001C45.46 81.0001 41 76.5401 41 71.0001C41 65.8063 44.9452 61.5102 50 61Z" fill="white"/>
<path d="M191 331C182.716 331 176 324.285 176 316C176 312.603 177.159 309.515 179.062 307C174.177 303.36 171 297.588 171 291C171 279.92 179.92 271 191 271C202.08 271 211 279.92 211 291C211 297.588 207.823 303.36 202.938 307C204.841 309.515 206 312.603 206 316C206 324.285 199.284 331 191 331ZM191 321C193.761 321 196 318.762 196 316C196 313.239 193.761 311 191 311C188.239 311 186 313.239 186 316C186 318.762 188.239 321 191 321ZM190 301C190.337 301.036 190.654 301 191 301C196.54 301 201 296.54 201 291C201 285.46 196.54 281 191 281C185.46 281 181 285.46 181 291C181 296.194 184.945 300.49 190 301Z" fill="white"/>
</svg>
