<svg width="242" height="362" viewBox="0 0 242 362" fill="none" xmlns="http://www.w3.org/2000/svg">
<path d="M201 1.00012H41C18.9086 1.00012 1 18.9087 1 41.0001V321C1 343.092 18.9086 361 41 361H201C223.091 361 241 343.092 241 321V41.0001C241 18.9087 223.091 1.00012 201 1.00012Z" fill="white" stroke="black" stroke-width="2"/>
<path d="M201 21.0001H41C29.9543 21.0001 21 29.9544 21 41.0001V321C21 332.046 29.9543 341 41 341H201C212.046 341 221 332.046 221 321V41.0001C221 29.9544 212.046 21.0001 201 21.0001Z" fill="#FF5555"/>
<path fill-rule="evenodd" clip-rule="evenodd" d="M181 81.0001C92.6344 81.0001 21 152.635 21 241C21 263.092 38.9086 281 61 281C149.366 281 221 209.366 221 121C221 98.9087 203.091 81.0001 181 81.0001Z" fill="white"/>
<path fill-rule="evenodd" clip-rule="evenodd" d="M121.125 121C105.77 120.98 90.3561 126.8 78.6251 138.5C55.1631 161.901 55.0994 199.913 78.5003 223.375C101.901 246.837 139.913 246.901 163.375 223.5C186.837 200.099 186.901 162.087 163.5 138.625C151.8 126.894 136.48 121.02 121.125 121V121ZM121 141C128 141.008 135.031 142.841 141.25 146.5L86.5003 201.25C77.4589 185.899 79.5531 165.788 92.7503 152.625C100.571 144.825 110.763 140.987 121 141ZM155.5 160.625C164.604 175.988 162.474 196.186 149.25 209.375C136.04 222.552 115.959 224.488 100.625 215.375L155.5 160.625Z" fill="#FF5555"/>
<path fill-rule="evenodd" clip-rule="evenodd" d="M61.0622 31.0001C53.386 30.9881 45.6808 33.8996 39.8164 39.7493C28.0876 51.4486 28.0557 70.4529 39.7539 82.1829C51.4521 93.9127 70.4548 93.9446 82.1836 82.2452C93.9123 70.5459 93.9441 51.5416 82.2458 39.8118C76.3967 33.9468 68.7386 31.01 61.0622 31V31.0001ZM61 40.9991C64.4991 41.0031 68.0141 41.9193 71.123 43.7489L43.7532 71.1213C39.2332 63.4464 40.28 53.392 46.8774 46.8112C50.7871 42.9114 55.8825 40.9924 61 40.9991V40.9991ZM78.2468 50.8107C82.7979 58.4915 81.7329 68.5895 75.1223 75.1835C68.5181 81.7711 58.4795 82.7394 50.8142 78.1832L78.2468 50.8107Z" fill="white"/>
<path fill-rule="evenodd" clip-rule="evenodd" d="M181.062 271C173.386 270.988 165.681 273.9 159.816 279.749C148.088 291.449 148.056 310.453 159.754 322.183C171.452 333.913 190.455 333.945 202.184 322.245C213.912 310.546 213.944 291.542 202.246 279.812C196.397 273.947 188.739 271.01 181.062 271V271ZM181 280.999C184.499 281.003 188.014 281.919 191.123 283.749L163.753 311.121C159.233 303.446 160.28 293.392 166.877 286.811C170.787 282.911 175.883 280.992 181 280.999V280.999ZM198.247 290.811C202.798 298.491 201.733 308.59 195.122 315.183C188.518 321.771 178.479 322.739 170.814 318.183L198.247 290.811Z" fill="white"/>
</svg>
